<?xml version="1.0" encoding="utf-8"?>
<!-- Generator: Adobe Illustrator 15.1.0, SVG Export Plug-In  -->
<!DOCTYPE svg PUBLIC "-//W3C//DTD SVG 1.1//EN" "http://www.w3.org/Graphics/SVG/1.1/DTD/svg11.dtd" [
	<!ENTITY ns_flows "http://ns.adobe.com/Flows/1.0/">
]>
<svg version="1.1"
	 xmlns="http://www.w3.org/2000/svg" xmlns:xlink="http://www.w3.org/1999/xlink" xmlns:a="http://ns.adobe.com/AdobeSVGViewerExtensions/3.0/"
	 x="0px" y="0px" width="223px" height="61px" viewBox="289 270 223 61" enable-background="new 289 270 223 61"
	 xml:space="preserve">
<defs>
</defs>
<rect display="none" fill="#999999" width="800" height="600"/>
<path fill="#F2F2F2" d="M292.697,293.343h-1.248c-0.48,0-0.864-0.432-0.864-0.912v-4.272c0-0.527,0.384-0.912,0.864-0.912h1.248
	v-5.328c0-0.48,0.432-0.912,0.912-0.912h5.136c0.48,0,0.864,0.432,0.864,0.912v5.328h3.553c0.527,0,0.912,0.385,0.912,0.912v4.272
	c0,0.48-0.385,0.912-0.912,0.912h-3.553v6.001c0,1.056,0.721,1.151,1.296,1.151c0.673,0,1.393-0.239,1.872-0.336
	c0.48-0.096,0.912,0.097,1.057,0.624l1.056,3.984c0.097,0.433-0.144,0.96-0.624,1.104c0,0-3.408,1.056-5.809,1.056
	c-3.647,0-5.76-2.304-5.76-6.672V293.343z"/>
<path fill="#F2F2F2" d="M306.137,288.494c-0.288-0.624,0.096-1.248,0.815-1.248h5.473c0.384,0,0.672,0.24,0.816,0.528l3.696,8.929
	h0.096l3.792-8.929c0.097-0.288,0.433-0.528,0.816-0.528h5.425c0.72,0,1.152,0.624,0.815,1.248l-14.688,31.779
	c-0.145,0.288-0.433,0.576-0.816,0.576H307c-0.72,0-1.151-0.624-0.815-1.297l7.152-15.073L306.137,288.494z"/>
<path fill="#F2F2F2" d="M330.761,273.757c0-0.479,0.432-0.912,0.912-0.912h5.28c0.479,0,0.912,0.433,0.912,0.912v31.779
	c0,0.479-0.433,0.912-0.912,0.912h-5.28c-0.48,0-0.912-0.433-0.912-0.912V273.757z"/>
<path fill="#F2F2F2" d="M351.545,286.767c4.896,0,9.121,3.744,9.121,9.024c0,0.336-0.048,0.96-0.096,1.296
	c-0.048,0.48-0.48,0.816-0.912,0.816h-11.521c0.145,1.296,1.2,3.168,3.696,3.168c1.2,0,2.593-0.576,3.36-1.151
	c0.433-0.337,0.912-0.337,1.2,0l2.4,2.88c0.288,0.384,0.384,0.96-0.048,1.392c-1.681,1.681-4.081,2.736-7.104,2.736
	c-5.713,0-10.033-4.561-10.033-10.08C341.608,291.423,345.881,286.767,351.545,286.767z M353.897,294.159
	c-0.096-1.248-1.296-2.257-2.544-2.257c-1.297,0-2.4,1.009-2.593,2.257H353.897z"/>
<path fill="#F2F2F2" d="M364.12,288.158c0-0.527,0.433-0.912,0.912-0.912h2.256c0.528,0,0.721,0.288,0.864,0.576l0.864,2.112
	c0.96-1.393,2.736-3.168,5.232-3.168c2.641,0,4.513,0.96,3.841,2.063l-2.353,3.841c-0.192,0.336-0.528,0.624-1.056,0.432
	c-0.24-0.096-0.721-0.239-1.152-0.239c-1.44,0-2.544,1.104-2.544,2.735v9.938c0,0.576-0.288,0.912-1.057,0.912h-4.896
	c-0.479,0-0.912-0.433-0.912-0.912V288.158z"/>
<path fill="#C1272D" d="M380.968,295.695c0-3.793,3.12-6.961,6.769-6.961c3.792,0,6.96,3.168,6.96,6.961
	c0,3.648-3.168,6.769-6.96,6.769C384.088,302.464,380.968,299.344,380.968,295.695z"/>
<path fill="#F2F2F2" d="M405.927,294.159c2.16,0,3.696,0.768,3.696,0.768c0-1.872-0.287-2.832-2.592-2.832
	c-1.296,0-3.553,0.336-4.801,0.72c-0.72,0.24-1.056-0.288-1.151-1.008l-0.433-3.024c-0.144-0.815,0.288-1.151,0.721-1.296
	c0.432-0.144,3.792-0.72,6.384-0.72c5.953,0,8.113,2.496,8.113,8.16v10.609c0,0.479-0.433,0.912-0.912,0.912h-2.112
	c-0.288,0-0.624-0.097-0.864-0.624l-0.672-1.296c-1.104,1.008-2.784,2.399-5.809,2.399c-3.792,0-6.625-2.544-6.625-6.336
	C398.87,296.896,401.559,294.159,405.927,294.159z M407.175,302.224c1.152,0,2.112-0.96,2.112-2.112
	c-0.048-1.104-0.96-2.016-2.112-2.016c-1.151,0-2.063,0.912-2.063,2.016C405.111,301.264,406.023,302.224,407.175,302.224z"/>
<path fill="#F2F2F2" d="M420.758,288.158c0-0.527,0.433-0.912,0.912-0.912h2.256c0.288,0,0.721,0.24,0.864,0.576l0.768,1.92
	c1.057-1.151,3.265-2.976,6.77-2.976c5.952,0,9.121,4.561,9.121,10.032v8.737c0,0.479-0.433,0.912-0.912,0.912h-5.137
	c-0.528,0-0.912-0.433-0.912-0.912v-8.977c0-1.921-1.104-3.601-3.265-3.601c-1.92,0-3.648,1.392-3.648,3.36v9.217
	c0,0.432-0.192,0.912-0.864,0.912h-5.04c-0.479,0-0.912-0.433-0.912-0.912V288.158z"/>
<path fill="#F2F2F2" d="M443.51,288.494c-0.288-0.624,0.096-1.248,0.815-1.248h5.473c0.385,0,0.672,0.24,0.816,0.528l3.696,8.929
	h0.097l3.792-8.929c0.096-0.288,0.432-0.528,0.815-0.528h5.425c0.72,0,1.152,0.624,0.815,1.248l-14.688,31.779
	c-0.144,0.288-0.433,0.576-0.816,0.576h-5.376c-0.721,0-1.152-0.624-0.816-1.297l7.152-15.073L443.51,288.494z"/>
<path fill="#F2F2F2" d="M473.895,294.159c2.16,0,3.696,0.768,3.696,0.768c0-1.872-0.287-2.832-2.592-2.832
	c-1.297,0-3.553,0.336-4.801,0.72c-0.72,0.24-1.057-0.288-1.152-1.008l-0.432-3.024c-0.145-0.815,0.288-1.151,0.721-1.296
	c0.432-0.144,3.791-0.72,6.384-0.72c5.952,0,8.112,2.496,8.112,8.16v10.609c0,0.479-0.432,0.912-0.912,0.912h-2.111
	c-0.288,0-0.625-0.097-0.864-0.624l-0.673-1.296c-1.104,1.008-2.783,2.399-5.808,2.399c-3.792,0-6.625-2.544-6.625-6.336
	C466.838,296.896,469.526,294.159,473.895,294.159z M475.143,302.224c1.152,0,2.112-0.96,2.112-2.112
	c-0.048-1.104-0.96-2.016-2.112-2.016c-1.151,0-2.063,0.912-2.063,2.016C473.079,301.264,473.991,302.224,475.143,302.224z"/>
<path fill="#F2F2F2" d="M488.726,288.158c0-0.527,0.432-0.912,0.912-0.912h2.256c0.287,0,0.72,0.24,0.863,0.576l0.769,1.92
	c1.056-1.151,3.265-2.976,6.769-2.976c5.953,0,9.121,4.561,9.121,10.032v8.737c0,0.479-0.432,0.912-0.912,0.912h-5.137
	c-0.527,0-0.912-0.433-0.912-0.912v-8.977c0-1.921-1.104-3.601-3.264-3.601c-1.921,0-3.648,1.392-3.648,3.36v9.217
	c0,0.432-0.192,0.912-0.864,0.912h-5.04c-0.48,0-0.912-0.433-0.912-0.912V288.158z"/>
<path fill="#F2F2F2" d="M325.088,314.313c-0.084-0.262,0-0.43,0.315-0.43h0.65c0.189,0,0.336,0.093,0.378,0.205l1.533,4.935h0.021
	l2.373-5.14c0.042-0.094,0.168-0.188,0.356-0.188h0.105c0.188,0,0.314,0.094,0.356,0.188l2.352,5.159h0.021l1.512-4.954
	c0.042-0.112,0.188-0.205,0.356-0.205h0.651c0.314,0,0.398,0.168,0.314,0.43l-2.288,7.047c-0.042,0.112-0.189,0.187-0.357,0.187
	h-0.104c-0.189,0-0.315-0.093-0.357-0.187l-2.562-5.607l-2.478,5.607c-0.042,0.094-0.168,0.187-0.356,0.187h-0.105
	c-0.188,0-0.314-0.074-0.356-0.187L325.088,314.313z"/>
<path fill="#F2F2F2" d="M342.076,313.696c2.204,0,3.8,1.458,3.8,3.421c0,0.131-0.021,0.374-0.042,0.505
	c-0.021,0.187-0.188,0.317-0.378,0.317h-6.047c0.084,1.253,1.323,2.431,2.813,2.431c0.882,0,1.596-0.3,2.079-0.562
	c0.294-0.149,0.42-0.243,0.588-0.037c0.126,0.149,0.23,0.28,0.356,0.43c0.147,0.169,0.231,0.28-0.084,0.486
	c-0.504,0.355-1.638,0.859-3.086,0.859c-2.541,0-4.115-1.775-4.115-3.925C337.961,315.51,339.535,313.696,342.076,313.696z
	 M344.428,316.893c-0.063-1.084-1.071-2.056-2.352-2.056c-1.407,0-2.499,0.897-2.646,2.056H344.428z"/>
<path fill="#F2F2F2" d="M348.188,308.631c0-0.187,0.188-0.354,0.398-0.354h0.651c0.21,0,0.398,0.168,0.398,0.354v5.552
	c0,0,0.861-0.486,2.247-0.486c2.52,0,4.031,1.72,4.031,3.907c0,2.149-1.68,3.943-3.821,3.943c-1.575,0-2.583-0.99-2.583-0.99
	l-0.126,0.505c-0.042,0.168-0.168,0.299-0.356,0.299h-0.441c-0.21,0-0.398-0.168-0.398-0.355V308.631z M351.945,320.37
	c1.533,0,2.499-1.29,2.499-2.748c0-1.495-0.924-2.673-2.751-2.673c-1.154,0-2.036,0.448-2.036,0.448v3.738
	C349.657,319.136,350.434,320.37,351.945,320.37z"/>
<path fill="#C1272D" d="M358.708,318.631c0,0-0.608-0.561-0.608-1.7c0-1.738,1.658-3.234,3.695-3.234h3.968
	c0.231,0,0.399,0.149,0.399,0.355v0.767c0,0.131-0.105,0.262-0.231,0.317l-1.218,0.393c0,0,0.798,0.579,0.798,1.813
	c0,1.364-1.406,2.822-3.632,2.822h-1.512c-0.441,0-0.693,0.206-0.693,0.505c0,0.354,0.357,0.505,0.672,0.505h2.52
	c1.974,0,3.611,1.065,3.611,2.729c0,1.795-1.406,3.253-4.724,3.253c-3.255,0-4.389-1.365-4.389-2.543
	c0-1.121,1.05-1.682,1.281-1.794v-0.056c-0.273-0.075-1.617-0.599-1.617-2.075S358.708,318.631,358.708,318.631z M361.753,324.968
	c1.05,0,1.512-0.374,1.512-0.878c0-0.393-0.378-0.785-1.512-0.785c-0.756,0-1.512,0.242-1.512,0.785
	C360.241,324.612,360.745,324.968,361.753,324.968z M361.879,318.07c0.65,0,1.112-0.411,1.112-0.972s-0.462-0.972-1.112-0.972
	c-0.63,0-1.113,0.411-1.113,0.972S361.249,318.07,361.879,318.07z"/>
<path fill="#C1272D" d="M367.696,314.238c0-0.205,0.189-0.354,0.399-0.354h0.986c0.231,0,0.315,0.112,0.378,0.224l0.378,0.823
	c0.42-0.542,1.197-1.234,2.289-1.234c1.154,0,1.974,0.374,1.68,0.804l-1.029,1.496c-0.084,0.131-0.23,0.242-0.462,0.168
	c-0.104-0.037-0.314-0.094-0.504-0.094c-0.63,0-1.112,0.43-1.112,1.065v3.869c0,0.225-0.126,0.355-0.462,0.355h-2.142
	c-0.21,0-0.399-0.168-0.399-0.355V314.238z"/>
<path fill="#C1272D" d="M377.461,316.575c0.944,0,1.616,0.299,1.616,0.299c0-0.729-0.126-1.103-1.134-1.103
	c-0.566,0-1.554,0.131-2.1,0.28c-0.314,0.094-0.462-0.112-0.504-0.393l-0.188-1.178c-0.063-0.317,0.126-0.448,0.314-0.505
	c0.189-0.056,1.659-0.28,2.793-0.28c2.604,0,3.548,0.973,3.548,3.178v4.131c0,0.188-0.188,0.355-0.398,0.355h-0.924
	c-0.126,0-0.273-0.037-0.378-0.243l-0.294-0.505c-0.483,0.393-1.218,0.935-2.541,0.935c-1.658,0-2.897-0.99-2.897-2.467
	C374.374,317.641,375.55,316.575,377.461,316.575z M378.007,319.716c0.504,0,0.924-0.374,0.924-0.823
	c-0.021-0.43-0.42-0.784-0.924-0.784s-0.903,0.354-0.903,0.784C377.104,319.342,377.503,319.716,378.007,319.716z"/>
<path fill="#C1272D" d="M387.078,326.613c0,0.187-0.188,0.354-0.398,0.354h-2.331c-0.21,0-0.398-0.168-0.398-0.354v-12.375
	c0-0.187,0.188-0.354,0.398-0.354h0.987c0.21,0,0.356,0.168,0.44,0.374l0.252,0.616c0,0,0.966-1.178,2.813-1.178
	c2.373,0,4.157,1.776,4.157,3.926c0,2.636-1.932,3.925-4.178,3.925c-0.714,0-1.491-0.224-1.743-0.354V326.613z M388.422,319.136
	c0.966,0,1.701-0.654,1.701-1.495c0-0.859-0.735-1.533-1.701-1.533s-1.68,0.674-1.68,1.533
	C386.742,318.481,387.456,319.136,388.422,319.136z"/>
<path fill="#C1272D" d="M394.66,308.631c0-0.187,0.188-0.354,0.398-0.354h2.331c0.21,0,0.398,0.168,0.398,0.354v5.496
	c0.63-0.281,1.323-0.431,1.953-0.431c2.646,0,4.01,1.851,4.01,3.926v3.383c0,0.188-0.188,0.355-0.398,0.355h-2.226
	c-0.231,0-0.399-0.168-0.399-0.355v-3.42c0-0.823-0.608-1.478-1.532-1.478c-0.672,0-1.407,0.337-1.407,1.478v3.42
	c0,0.243-0.104,0.355-0.462,0.355h-2.268c-0.21,0-0.398-0.168-0.398-0.355V308.631z"/>
<path fill="#C1272D" d="M405.664,310.146c0-0.823,0.734-1.496,1.658-1.496s1.68,0.673,1.68,1.496c0,0.822-0.756,1.477-1.68,1.477
	S405.664,310.968,405.664,310.146z M405.79,314.238c0-0.205,0.188-0.354,0.398-0.354h2.31c0.21,0,0.399,0.149,0.399,0.354v6.767
	c0,0.188-0.189,0.355-0.399,0.355h-2.31c-0.21,0-0.398-0.168-0.398-0.355V314.238z"/>
<path fill="#C1272D" d="M415.05,313.696c1.323,0,2.352,0.486,3.149,1.346c0.147,0.169,0.084,0.374-0.104,0.523l-1.26,1.065
	c-0.105,0.094-0.357,0.057-0.462-0.037c-0.294-0.28-0.735-0.486-1.218-0.486c-0.924,0-1.68,0.692-1.68,1.515
	c0,0.841,0.714,1.514,1.638,1.514c0.734,0,1.092-0.28,1.428-0.579c0.146-0.131,0.336-0.168,0.462-0.075l1.26,0.973
	c0.188,0.149,0.294,0.336,0.146,0.523c-0.776,1.046-1.868,1.569-3.38,1.569c-2.394,0-4.515-1.682-4.515-3.925
	C410.515,315.416,412.656,313.696,415.05,313.696z"/>
<path fill="#F2F2F2" d="M420.237,314.238c0-0.187,0.189-0.354,0.399-0.354h0.672c0.21,0,0.398,0.168,0.398,0.354v3.944
	c0,1.421,0.714,2.112,1.89,2.112c1.596,0,2.498-1.065,2.498-1.065c0-0.411,0-0.841,0-4.991c0-0.187,0.189-0.354,0.399-0.354h0.651
	c0.209,0,0.398,0.168,0.398,0.354v6.767c0,0.188-0.189,0.355-0.398,0.355h-0.399c-0.231,0-0.315-0.131-0.378-0.317l-0.146-0.486
	c0,0-0.987,0.99-2.729,0.99c-2.436,0-3.255-1.401-3.255-3.383V314.238z"/>
<path fill="#F2F2F2" d="M432.563,317.547l-2.666-3.178c-0.211-0.242-0.084-0.485,0.272-0.485h0.882c0.146,0,0.273,0.074,0.336,0.149
	l1.994,2.542h0.021l2.078-2.542c0.063-0.075,0.189-0.149,0.336-0.149h0.883c0.356,0,0.482,0.243,0.272,0.485l-2.667,3.159
	l2.688,3.346c0.189,0.243,0.063,0.486-0.272,0.486h-0.776c-0.127,0-0.252-0.094-0.315-0.168l-2.226-2.748h-0.021l-2.184,2.767
	c-0.063,0.074-0.188,0.149-0.336,0.149h-0.776c-0.356,0-0.462-0.243-0.272-0.486L432.563,317.547z"/>
<rect id="_x3C_Slice_x3E__1_" x="289" y="270" fill="none" width="223" height="61"/>
</svg>
